<mxfile host="app.diagrams.net" agent="Mozilla/5.0 (Windows NT 10.0; Win64; x64) AppleWebKit/537.36 (KHTML, like Gecko) Chrome/127.0.0.0 Safari/537.36" version="24.7.7">
  <diagram name="Page-1" id="p7fXe_zeEu5JoQGk8zQr">
    <mxGraphModel dx="724" dy="431" grid="1" gridSize="10" guides="1" tooltips="1" connect="1" arrows="1" fold="1" page="1" pageScale="1" pageWidth="850" pageHeight="1100" math="0" shadow="0">
      <root>
        <mxCell id="0" />
        <mxCell id="1" parent="0" />
        <mxCell id="LQ8B1Hqz2sIYhNUN1L1J-29" style="edgeStyle=orthogonalEdgeStyle;rounded=0;orthogonalLoop=1;jettySize=auto;html=1;exitX=0.5;exitY=1;exitDx=0;exitDy=0;" edge="1" parent="1" source="LQ8B1Hqz2sIYhNUN1L1J-1" target="LQ8B1Hqz2sIYhNUN1L1J-5">
          <mxGeometry relative="1" as="geometry" />
        </mxCell>
        <mxCell id="LQ8B1Hqz2sIYhNUN1L1J-1" value="&lt;font style=&quot;font-size: 14px;&quot;&gt;Pizza Dataset (PostgreSQL)&lt;/font&gt;" style="rounded=1;whiteSpace=wrap;html=1;" vertex="1" parent="1">
          <mxGeometry x="270" y="30" width="130" height="60" as="geometry" />
        </mxCell>
        <mxCell id="LQ8B1Hqz2sIYhNUN1L1J-27" value="" style="edgeStyle=orthogonalEdgeStyle;rounded=0;orthogonalLoop=1;jettySize=auto;html=1;" edge="1" parent="1" source="LQ8B1Hqz2sIYhNUN1L1J-3" target="LQ8B1Hqz2sIYhNUN1L1J-5">
          <mxGeometry relative="1" as="geometry" />
        </mxCell>
        <mxCell id="LQ8B1Hqz2sIYhNUN1L1J-3" value="&lt;font style=&quot;font-size: 14px;&quot;&gt;Postal Codes Dataset (CSV)&lt;/font&gt;" style="rounded=1;whiteSpace=wrap;html=1;" vertex="1" parent="1">
          <mxGeometry x="440" y="30" width="130" height="60" as="geometry" />
        </mxCell>
        <mxCell id="LQ8B1Hqz2sIYhNUN1L1J-16" style="edgeStyle=orthogonalEdgeStyle;rounded=0;orthogonalLoop=1;jettySize=auto;html=1;exitX=0.25;exitY=1;exitDx=0;exitDy=0;" edge="1" parent="1" source="LQ8B1Hqz2sIYhNUN1L1J-5" target="LQ8B1Hqz2sIYhNUN1L1J-10">
          <mxGeometry relative="1" as="geometry" />
        </mxCell>
        <mxCell id="LQ8B1Hqz2sIYhNUN1L1J-25" style="edgeStyle=orthogonalEdgeStyle;rounded=0;orthogonalLoop=1;jettySize=auto;html=1;exitX=0.5;exitY=1;exitDx=0;exitDy=0;" edge="1" parent="1" source="LQ8B1Hqz2sIYhNUN1L1J-5" target="LQ8B1Hqz2sIYhNUN1L1J-22">
          <mxGeometry relative="1" as="geometry" />
        </mxCell>
        <mxCell id="LQ8B1Hqz2sIYhNUN1L1J-26" style="edgeStyle=orthogonalEdgeStyle;rounded=0;orthogonalLoop=1;jettySize=auto;html=1;exitX=0.75;exitY=1;exitDx=0;exitDy=0;entryX=0.5;entryY=0;entryDx=0;entryDy=0;" edge="1" parent="1" source="LQ8B1Hqz2sIYhNUN1L1J-5" target="LQ8B1Hqz2sIYhNUN1L1J-24">
          <mxGeometry relative="1" as="geometry" />
        </mxCell>
        <mxCell id="LQ8B1Hqz2sIYhNUN1L1J-5" value="&lt;span style=&quot;font-size: 14px;&quot;&gt;&lt;span style=&quot;font-weight: bold; font-size: 13px;&quot;&gt;&amp;nbsp;&lt;/span&gt;&lt;font style=&quot;font-size: 14px;&quot;&gt;data_gen.py&amp;nbsp;&lt;/font&gt;&lt;/span&gt;&lt;div style=&quot;font-size: 14px;&quot;&gt;&lt;font style=&quot;font-size: 14px;&quot;&gt;(Connects &lt;span style=&quot;&quot; class=&quot;hljs-keyword&quot;&gt;to&lt;/span&gt; DB, Loads&amp;nbsp;CSV data, Initiates Multi&lt;span style=&quot;&quot; class=&quot;hljs-operator&quot;&gt;-&lt;/span&gt;Processing)&amp;nbsp;&lt;/font&gt;&lt;/div&gt;" style="rounded=0;whiteSpace=wrap;html=1;" vertex="1" parent="1">
          <mxGeometry x="330" y="130" width="180" height="100" as="geometry" />
        </mxCell>
        <mxCell id="LQ8B1Hqz2sIYhNUN1L1J-8" value="" style="shape=image;html=1;verticalAlign=top;verticalLabelPosition=bottom;labelBackgroundColor=#ffffff;imageAspect=0;aspect=fixed;image=https://cdn0.iconfinder.com/data/icons/long-shadow-web-icons/512/python-128.png" vertex="1" parent="1">
          <mxGeometry x="330" y="130" width="30" height="30" as="geometry" />
        </mxCell>
        <mxCell id="LQ8B1Hqz2sIYhNUN1L1J-43" style="edgeStyle=orthogonalEdgeStyle;rounded=0;orthogonalLoop=1;jettySize=auto;html=1;exitX=0.5;exitY=1;exitDx=0;exitDy=0;exitPerimeter=0;entryX=0.5;entryY=0;entryDx=0;entryDy=0;" edge="1" parent="1" source="LQ8B1Hqz2sIYhNUN1L1J-10" target="LQ8B1Hqz2sIYhNUN1L1J-30">
          <mxGeometry relative="1" as="geometry" />
        </mxCell>
        <mxCell id="LQ8B1Hqz2sIYhNUN1L1J-10" value="api_caller.py (Generate Orders, Simulate &lt;span class=&quot;hljs-keyword&quot;&gt;User&lt;/span&gt; Info)" style="points=[[0.25,0,0],[0.5,0,0],[0.75,0,0],[1,0.25,0],[1,0.5,0],[1,0.75,0],[0.75,1,0],[0.5,1,0],[0.25,1,0],[0,0.75,0],[0,0.5,0],[0,0.25,0]];shape=mxgraph.bpmn.task;whiteSpace=wrap;rectStyle=rounded;size=10;html=1;container=1;expand=0;collapsible=0;taskMarker=abstract;bpmnShapeType=subprocess;isLoopSub=1;outline=eventNonint;symbol=multiple;" vertex="1" parent="1">
          <mxGeometry x="219" y="290" width="120" height="80" as="geometry" />
        </mxCell>
        <mxCell id="LQ8B1Hqz2sIYhNUN1L1J-19" value="" style="shape=image;html=1;verticalAlign=top;verticalLabelPosition=bottom;labelBackgroundColor=#ffffff;imageAspect=0;aspect=fixed;image=https://cdn0.iconfinder.com/data/icons/long-shadow-web-icons/512/python-128.png" vertex="1" parent="LQ8B1Hqz2sIYhNUN1L1J-10">
          <mxGeometry x="50" width="20" height="20" as="geometry" />
        </mxCell>
        <mxCell id="LQ8B1Hqz2sIYhNUN1L1J-44" style="edgeStyle=orthogonalEdgeStyle;rounded=0;orthogonalLoop=1;jettySize=auto;html=1;exitX=0.5;exitY=1;exitDx=0;exitDy=0;exitPerimeter=0;entryX=0.5;entryY=0;entryDx=0;entryDy=0;" edge="1" parent="1" source="LQ8B1Hqz2sIYhNUN1L1J-21" target="LQ8B1Hqz2sIYhNUN1L1J-30">
          <mxGeometry relative="1" as="geometry" />
        </mxCell>
        <mxCell id="LQ8B1Hqz2sIYhNUN1L1J-21" value="api_caller.py (Generate Orders, Simulate &lt;span class=&quot;hljs-keyword&quot;&gt;User&lt;/span&gt; Info)" style="points=[[0.25,0,0],[0.5,0,0],[0.75,0,0],[1,0.25,0],[1,0.5,0],[1,0.75,0],[0.75,1,0],[0.5,1,0],[0.25,1,0],[0,0.75,0],[0,0.5,0],[0,0.25,0]];shape=mxgraph.bpmn.task;whiteSpace=wrap;rectStyle=rounded;size=10;html=1;container=1;expand=0;collapsible=0;taskMarker=abstract;bpmnShapeType=subprocess;isLoopSub=1;outline=eventNonint;symbol=multiple;" vertex="1" parent="1">
          <mxGeometry x="360" y="290" width="120" height="80" as="geometry" />
        </mxCell>
        <mxCell id="LQ8B1Hqz2sIYhNUN1L1J-22" value="" style="shape=image;html=1;verticalAlign=top;verticalLabelPosition=bottom;labelBackgroundColor=#ffffff;imageAspect=0;aspect=fixed;image=https://cdn0.iconfinder.com/data/icons/long-shadow-web-icons/512/python-128.png" vertex="1" parent="LQ8B1Hqz2sIYhNUN1L1J-21">
          <mxGeometry x="50" width="20" height="20" as="geometry" />
        </mxCell>
        <mxCell id="LQ8B1Hqz2sIYhNUN1L1J-46" style="edgeStyle=orthogonalEdgeStyle;rounded=0;orthogonalLoop=1;jettySize=auto;html=1;exitX=0.5;exitY=1;exitDx=0;exitDy=0;exitPerimeter=0;entryX=0.5;entryY=0;entryDx=0;entryDy=0;" edge="1" parent="1" source="LQ8B1Hqz2sIYhNUN1L1J-23" target="LQ8B1Hqz2sIYhNUN1L1J-31">
          <mxGeometry relative="1" as="geometry" />
        </mxCell>
        <mxCell id="LQ8B1Hqz2sIYhNUN1L1J-23" value="api_caller.py (Generate Orders, Simulate &lt;span class=&quot;hljs-keyword&quot;&gt;User&lt;/span&gt; Info)" style="points=[[0.25,0,0],[0.5,0,0],[0.75,0,0],[1,0.25,0],[1,0.5,0],[1,0.75,0],[0.75,1,0],[0.5,1,0],[0.25,1,0],[0,0.75,0],[0,0.5,0],[0,0.25,0]];shape=mxgraph.bpmn.task;whiteSpace=wrap;rectStyle=rounded;size=10;html=1;container=1;expand=0;collapsible=0;taskMarker=abstract;bpmnShapeType=subprocess;isLoopSub=1;outline=eventNonint;symbol=multiple;" vertex="1" parent="1">
          <mxGeometry x="500" y="290" width="120" height="80" as="geometry" />
        </mxCell>
        <mxCell id="LQ8B1Hqz2sIYhNUN1L1J-24" value="" style="shape=image;html=1;verticalAlign=top;verticalLabelPosition=bottom;labelBackgroundColor=#ffffff;imageAspect=0;aspect=fixed;image=https://cdn0.iconfinder.com/data/icons/long-shadow-web-icons/512/python-128.png" vertex="1" parent="LQ8B1Hqz2sIYhNUN1L1J-23">
          <mxGeometry x="50" width="20" height="20" as="geometry" />
        </mxCell>
        <mxCell id="LQ8B1Hqz2sIYhNUN1L1J-45" style="edgeStyle=orthogonalEdgeStyle;rounded=0;orthogonalLoop=1;jettySize=auto;html=1;exitX=0.5;exitY=1;exitDx=0;exitDy=0;exitPerimeter=0;entryX=0.5;entryY=0;entryDx=0;entryDy=0;" edge="1" parent="1" source="LQ8B1Hqz2sIYhNUN1L1J-21" target="LQ8B1Hqz2sIYhNUN1L1J-31">
          <mxGeometry relative="1" as="geometry" />
        </mxCell>
        <mxCell id="LQ8B1Hqz2sIYhNUN1L1J-48" value="" style="group" vertex="1" connectable="0" parent="1">
          <mxGeometry x="240" y="440" width="120" height="60" as="geometry" />
        </mxCell>
        <mxCell id="LQ8B1Hqz2sIYhNUN1L1J-30" value="&lt;span class=&quot;hljs-keyword&quot;&gt;First&lt;/span&gt; &lt;span class=&quot;hljs-keyword&quot;&gt;Order&lt;/span&gt; API (Send Pizza Order)" style="rounded=0;whiteSpace=wrap;html=1;" vertex="1" parent="LQ8B1Hqz2sIYhNUN1L1J-48">
          <mxGeometry width="120" height="60" as="geometry" />
        </mxCell>
        <mxCell id="LQ8B1Hqz2sIYhNUN1L1J-32" value="" style="sketch=0;outlineConnect=0;fontColor=#232F3E;gradientColor=none;fillColor=#E7157B;strokeColor=none;dashed=0;verticalLabelPosition=bottom;verticalAlign=top;align=center;html=1;fontSize=12;fontStyle=0;aspect=fixed;pointerEvents=1;shape=mxgraph.aws4.endpoint;" vertex="1" parent="LQ8B1Hqz2sIYhNUN1L1J-48">
          <mxGeometry width="10" height="10" as="geometry" />
        </mxCell>
        <mxCell id="LQ8B1Hqz2sIYhNUN1L1J-49" value="" style="group" vertex="1" connectable="0" parent="1">
          <mxGeometry x="480" y="440" width="120" height="60" as="geometry" />
        </mxCell>
        <mxCell id="LQ8B1Hqz2sIYhNUN1L1J-31" value="&lt;span class=&quot;hljs-keyword&quot;&gt;Final Order&lt;/span&gt; API (Send User data + Token)" style="rounded=0;whiteSpace=wrap;html=1;" vertex="1" parent="LQ8B1Hqz2sIYhNUN1L1J-49">
          <mxGeometry width="120" height="60" as="geometry" />
        </mxCell>
        <mxCell id="LQ8B1Hqz2sIYhNUN1L1J-33" value="" style="sketch=0;outlineConnect=0;fontColor=#232F3E;gradientColor=none;fillColor=#E7157B;strokeColor=none;dashed=0;verticalLabelPosition=bottom;verticalAlign=top;align=center;html=1;fontSize=12;fontStyle=0;aspect=fixed;pointerEvents=1;shape=mxgraph.aws4.endpoint;" vertex="1" parent="LQ8B1Hqz2sIYhNUN1L1J-49">
          <mxGeometry width="10" height="10" as="geometry" />
        </mxCell>
      </root>
    </mxGraphModel>
  </diagram>
</mxfile>
